<?xml version="1.0" standalone="no"?>
<!DOCTYPE svg PUBLIC "-//W3C//DTD SVG 20010904//EN"
 "http://www.w3.org/TR/2001/REC-SVG-20010904/DTD/svg10.dtd">
<svg version="1.0" xmlns="http://www.w3.org/2000/svg"
 width="1280.000000pt" height="1034.000000pt" viewBox="0 0 1280.000000 1034.000000"
 preserveAspectRatio="xMidYMid meet">
<g transform="translate(0.000000,1034.000000) scale(0.100000,-0.100000)"
fill="#000000" stroke="none">
<path d="M9977 10324 c-134 -49 -235 -119 -261 -184 -25 -62 -36 -165 -25
-224 14 -76 42 -125 118 -208 l68 -75 6 -619 c4 -340 12 -754 19 -919 7 -165
13 -563 13 -885 0 -534 -2 -607 -23 -840 -48 -525 -47 -522 -124 -535 -106
-18 -565 -51 -591 -42 -19 6 -40 30 -68 79 -68 115 -78 156 -89 355 -16 285
-15 290 19 308 16 8 59 20 96 27 48 9 70 19 77 32 17 31 2 222 -32 421 -64
370 -132 721 -147 752 -20 42 -116 107 -184 123 -54 13 -266 8 -459 -11 -246
-24 -342 -30 -715 -44 -220 -8 -506 -22 -635 -30 -129 -8 -329 -17 -445 -20
-115 -3 -262 -10 -325 -15 -63 -6 -196 -15 -295 -20 -99 -6 -259 -17 -355 -25
-96 -8 -294 -19 -440 -25 -146 -5 -287 -12 -315 -15 -27 -3 -135 -10 -240 -15
-314 -16 -824 -69 -1024 -106 -96 -17 -124 -30 -198 -88 -48 -37 -53 -45 -67
-106 -18 -83 -33 -226 -46 -465 -6 -104 -17 -221 -25 -260 -8 -38 -17 -102
-20 -140 -7 -67 -6 -73 20 -103 41 -49 60 -55 180 -61 l110 -6 -2 -338 c-2
-325 -3 -339 -23 -372 -29 -46 -73 -82 -118 -95 -20 -5 -129 -15 -242 -20
-238 -12 -313 -20 -505 -55 -77 -15 -165 -31 -195 -36 -30 -5 -93 -17 -140
-25 -176 -32 -334 -115 -396 -208 -48 -73 -136 -338 -154 -466 -5 -36 -18
-218 -30 -404 -11 -187 -23 -349 -25 -360 -3 -12 -9 -156 -15 -321 -6 -165
-17 -358 -26 -430 -12 -109 -14 -298 -13 -1180 1 -577 -2 -1115 -7 -1194 -10
-155 -3 -331 15 -398 14 -51 87 -143 138 -173 61 -36 100 -47 473 -130 397
-88 446 -96 680 -105 91 -4 181 -11 201 -16 22 -5 47 -5 65 1 16 5 403 14 894
20 799 9 1220 23 1537 50 67 6 268 24 445 41 270 25 418 32 903 44 679 17 726
20 1730 114 420 40 532 48 895 66 395 20 693 42 794 60 268 47 671 168 811
244 78 41 122 96 152 186 9 27 22 59 29 70 25 38 34 142 45 515 11 385 9 591
-11 880 -7 91 -13 458 -14 815 -2 554 -5 665 -20 750 -9 55 -23 237 -31 405
-17 353 -39 635 -61 770 -43 276 -134 522 -248 677 -76 103 -66 101 -446 111
l-235 7 0 155 c0 194 -22 1204 -34 1525 -5 138 -5 302 1 385 15 253 12 603 -7
705 -29 162 -19 640 21 900 9 61 16 144 17 185 0 41 0 104 0 140 0 36 1 119 1
185 1 104 -2 125 -19 155 -35 58 -96 97 -217 135 -121 38 -134 39 -191 19z
m154 -149 c35 -18 102 -93 118 -132 20 -48 7 -77 -60 -144 -75 -75 -133 -103
-192 -94 -101 17 -126 58 -108 176 27 171 127 252 242 194z m3 -581 c3 -26 6
-104 6 -173 0 -69 6 -205 12 -301 8 -114 12 -576 13 -1325 1 -943 4 -1202 18
-1440 21 -357 22 -475 4 -499 -20 -27 -108 -34 -143 -11 -26 17 -27 18 -21
114 3 53 11 166 17 251 18 225 6 1689 -15 1975 -17 242 -30 1177 -18 1330 7
92 10 100 33 112 14 7 39 13 56 13 30 0 32 -2 38 -46z m-1238 -1911 c60 -89
151 -643 130 -787 -9 -58 -40 -95 -113 -133 -109 -58 -337 -129 -379 -119 -13
4 -53 34 -89 67 l-65 61 0 127 c-1 225 -31 432 -69 464 -21 18 -134 46 -233
57 -100 12 -986 -4 -1348 -24 -151 -8 -417 -20 -590 -26 -173 -6 -322 -13
-330 -15 -8 -3 -132 -9 -275 -15 -309 -12 -484 -28 -740 -68 -104 -17 -227
-33 -272 -36 -111 -9 -209 -40 -249 -80 -27 -27 -33 -42 -39 -100 -4 -37 -4
-121 0 -186 l7 -119 -80 -79 -80 -78 -184 -13 c-187 -13 -226 -18 -312 -42
l-48 -14 -35 40 c-66 76 -75 104 -68 213 4 53 13 124 20 157 8 33 21 105 30
160 20 128 30 159 66 200 57 64 173 93 539 135 96 11 191 24 210 30 19 5 138
17 265 25 126 9 252 20 278 25 26 6 87 10 135 10 48 0 125 5 172 10 218 26
289 31 645 45 209 8 398 17 420 20 22 2 198 9 390 15 433 13 690 25 1045 51
151 11 408 24 570 30 162 5 345 14 405 18 61 5 141 8 180 7 66 -1 70 -2 91
-33z m-750 -394 c42 -20 52 -75 63 -339 10 -231 34 -445 53 -467 6 -7 20 -13
32 -13 49 -1 50 -5 59 -252 l10 -234 -43 -93 c-24 -50 -51 -96 -60 -101 -9 -5
-152 -14 -316 -20 -1196 -42 -1410 -48 -2344 -70 -239 -6 -511 -17 -605 -25
-93 -7 -293 -22 -442 -31 -301 -19 -304 -19 -339 39 -17 29 -19 56 -22 274 -4
262 6 372 36 412 10 14 58 46 106 70 62 31 90 50 97 68 14 39 29 240 29 411 0
193 -4 187 146 196 60 4 172 12 249 18 77 6 154 10 170 8 83 -9 383 8 550 31
77 10 215 23 305 29 91 6 251 17 355 25 198 15 546 34 1095 60 179 8 352 17
385 19 134 8 402 -1 431 -15z m664 -818 c5 -11 10 -57 10 -103 0 -46 7 -137
15 -203 8 -66 17 -158 21 -205 12 -154 -21 -186 -182 -178 -97 5 -122 21 -150
95 -15 38 -16 73 -10 281 3 130 10 255 14 277 7 39 8 40 57 46 28 3 87 7 132
7 72 2 84 0 93 -17z m-4800 -323 c-1 -308 -11 -418 -47 -505 l-29 -68 -82 0
c-62 0 -85 4 -93 15 -13 18 -5 431 11 594 12 125 29 173 62 180 13 3 32 7 43
9 11 3 46 5 78 6 l57 1 0 -232z m5935 -547 c822 -15 833 -17 955 -140 67 -66
99 -119 151 -246 38 -93 40 -101 74 -422 29 -272 37 -391 45 -693 11 -407 27
-703 41 -768 24 -111 38 -1453 19 -1872 -10 -222 -25 -297 -92 -459 -40 -96
-69 -125 -144 -146 -32 -9 -115 -34 -184 -55 -124 -39 -379 -89 -560 -110 -52
-6 -183 -24 -290 -40 -284 -42 -317 -47 -630 -80 -157 -17 -339 -40 -405 -51
-180 -31 -461 -48 -1055 -64 -393 -10 -605 -21 -800 -39 -517 -48 -618 -55
-895 -66 -154 -5 -379 -14 -500 -20 -348 -15 -1471 -35 -1915 -34 -416 2 -642
16 -768 49 -32 8 -138 28 -237 45 -310 52 -809 152 -822 164 -6 6 -26 56 -44
111 l-34 100 0 305 c0 168 5 519 12 780 7 261 17 844 23 1295 11 862 19 1050
51 1204 25 121 87 306 138 413 51 107 165 277 240 359 l59 65 79 13 c43 7 152
24 243 39 161 25 177 26 650 27 487 1 621 9 735 40 60 17 201 31 475 46 401
21 496 28 545 38 28 5 199 15 380 21 248 9 354 17 425 31 100 20 351 39 535
39 61 0 142 5 180 11 171 25 236 30 500 39 154 5 314 14 355 20 157 21 299 29
755 45 760 25 738 25 1710 6z"/>
<path d="M9510 4590 c-36 -4 -83 -15 -104 -24 -21 -9 -47 -16 -58 -16 -28 0
-275 -93 -388 -146 -100 -47 -249 -143 -340 -218 -30 -26 -87 -71 -127 -101
-41 -32 -112 -103 -166 -168 -52 -61 -122 -143 -157 -182 -199 -223 -323 -445
-387 -690 -36 -138 -37 -143 -37 -340 -1 -222 -1 -224 83 -450 56 -151 121
-276 220 -424 100 -150 160 -220 261 -307 95 -81 204 -138 400 -207 231 -82
474 -127 795 -148 198 -12 271 -9 408 21 313 69 517 186 730 419 149 162 342
549 405 814 26 108 27 123 27 387 -1 437 -24 544 -195 923 -69 153 -104 213
-199 348 -82 115 -235 278 -281 297 -19 8 -54 27 -77 43 -57 40 -146 78 -303
133 l-132 46 -156 -1 c-86 -1 -186 -5 -222 -9z m374 -279 c32 -11 97 -46 144
-78 179 -119 485 -378 553 -469 41 -54 136 -266 183 -411 48 -144 116 -547
116 -681 0 -163 -146 -546 -291 -767 -62 -93 -186 -221 -280 -288 -98 -70
-164 -96 -266 -108 -48 -5 -142 -21 -208 -35 -142 -30 -403 -48 -550 -39 -135
9 -243 42 -410 125 -226 112 -330 186 -471 338 -106 114 -129 145 -177 239
-77 151 -153 331 -184 432 -58 193 -20 505 87 715 60 118 140 217 309 386 172
172 356 323 561 461 157 105 230 142 337 170 167 43 438 48 547 10z"/>
<path d="M9425 3396 c-173 -57 -365 -205 -416 -322 -75 -170 -76 -351 -3 -497
33 -64 143 -176 204 -207 44 -22 51 -23 218 -16 185 7 238 15 306 47 97 45
164 126 281 334 l67 120 -4 105 c-5 131 -18 162 -113 255 -84 83 -155 127
-267 166 -93 32 -201 38 -273 15z m192 -251 c59 -41 128 -400 93 -484 -15 -38
-75 -68 -151 -77 -103 -12 -301 41 -348 93 -22 25 -23 33 -19 114 4 70 12 101
36 152 67 144 167 207 342 216 14 0 35 -6 47 -14z"/>
<path d="M7600 4384 c-26 -4 -553 -45 -815 -64 -82 -6 -224 -18 -315 -27 -91
-8 -248 -19 -350 -23 -193 -8 -432 -24 -609 -39 -127 -12 -136 -18 -121 -87 6
-27 17 -148 24 -269 8 -121 19 -232 25 -247 36 -94 342 -119 796 -66 242 28
322 33 1087 73 262 14 488 29 502 35 40 15 56 61 68 188 12 127 7 190 -31 365
-19 90 -40 141 -66 159 -10 8 -146 8 -195 2z m140 -182 c0 -4 9 -68 20 -142
25 -174 25 -186 -3 -204 -23 -15 -346 -77 -359 -69 -5 2 -8 25 -8 51 0 26 -5
111 -12 190 -16 191 -22 184 179 192 137 5 183 0 183 -18z m-617 -23 c23 -6
42 -19 47 -32 8 -18 40 -299 40 -344 0 -22 -40 -34 -138 -44 -98 -10 -320 -2
-342 11 -8 5 -15 67 -21 179 -4 95 -11 176 -14 181 -9 14 24 40 53 41 196 9
319 16 327 17 6 1 27 -3 48 -9z m-620 -53 c30 -31 33 -351 4 -374 -18 -14
-429 -34 -442 -21 -6 6 -11 78 -13 167 -2 86 -7 161 -12 166 -15 15 1 35 33
41 51 10 296 33 359 34 37 1 61 -4 71 -13z m-633 -51 c19 -23 10 -339 -11
-360 -20 -21 -205 -33 -237 -16 -26 14 -29 34 -37 217 l-6 141 113 12 c62 7
114 14 117 17 10 10 49 3 61 -11z"/>
<path d="M3813 4336 c-131 -25 -365 -112 -548 -203 -332 -166 -503 -342 -732
-748 -77 -136 -220 -485 -281 -685 -26 -85 -26 -86 -26 -445 l-1 -360 28 -85
c34 -102 26 -90 194 -306 146 -188 214 -257 326 -333 166 -111 315 -167 624
-232 l198 -41 175 5 c271 9 451 44 672 133 356 143 689 398 878 674 74 109
104 174 160 345 76 235 100 392 81 545 -14 122 -105 527 -136 601 -35 89 -250
443 -344 569 -149 199 -322 372 -435 434 -100 56 -236 104 -336 121 -133 22
-405 28 -497 11z m422 -206 c98 -25 261 -102 375 -178 154 -103 321 -290 469
-527 63 -102 93 -173 156 -383 68 -223 78 -287 79 -502 l1 -185 -44 -115 c-92
-243 -188 -421 -288 -534 -79 -88 -245 -239 -340 -307 -132 -96 -278 -147
-556 -194 -184 -31 -222 -31 -372 0 -66 14 -142 25 -170 25 -158 0 -336 46
-435 112 -79 52 -402 373 -462 458 -25 36 -50 81 -56 100 -19 61 -34 287 -34
540 l-1 245 37 150 c40 169 86 271 225 503 121 203 273 389 385 471 51 37 215
131 331 189 68 33 306 124 387 147 68 19 204 13 313 -15z"/>
<path d="M3765 3139 c-261 -60 -460 -254 -473 -459 -7 -116 12 -212 61 -309
77 -153 149 -212 306 -247 69 -16 79 -16 155 1 44 9 102 26 130 36 112 45 315
202 354 273 13 25 16 63 17 206 0 171 -1 176 -28 234 -34 73 -157 198 -224
228 -48 21 -177 48 -228 47 -16 -1 -48 -5 -70 -10z m218 -213 c41 -9 74 -22
82 -33 23 -31 37 -104 36 -196 0 -72 -5 -98 -25 -142 -56 -122 -207 -167 -337
-99 -80 41 -159 148 -159 217 0 94 106 220 220 261 48 17 75 16 183 -8z"/>
<path d="M6755 3384 c-132 -13 -361 -38 -510 -55 -148 -18 -309 -34 -357 -38
-86 -6 -110 -17 -151 -66 -5 -5 -6 -86 -3 -180 4 -142 10 -194 37 -315 l32
-145 6 -530 c7 -598 3 -573 82 -597 36 -10 68 -8 233 16 172 25 234 28 636 37
245 5 470 14 500 18 206 32 264 46 333 80 69 35 72 37 71 71 -1 19 -6 60 -12
90 -11 53 -28 325 -57 930 -20 419 -43 640 -70 676 -29 41 -402 45 -770 8z
m580 -130 c54 -8 104 -19 110 -25 14 -14 34 -219 23 -241 -8 -16 -27 -18 -183
-18 l-174 0 -6 33 c-8 49 -21 254 -16 268 4 13 78 8 246 -17z m-449 -24 c7
-14 17 -77 23 -140 9 -91 8 -117 -2 -127 -9 -9 -69 -16 -196 -21 -214 -10
-251 -6 -267 27 -17 33 -39 220 -28 231 14 13 330 58 399 57 53 -2 61 -5 71
-27z m-662 -51 c37 -17 60 -84 54 -160 -7 -95 -15 -99 -204 -99 -188 0 -188 0
-197 114 -3 43 -3 84 -1 91 3 7 35 15 82 19 57 5 216 35 239 45 1 1 13 -4 27
-10z m1267 -694 c4 -202 13 -409 24 -510 24 -239 23 -241 -115 -279 -113 -32
-232 -38 -830 -43 -514 -4 -608 -3 -617 9 -9 10 -10 38 -3 104 15 143 12 364
-10 579 -32 330 -31 311 -12 334 21 26 174 54 412 76 91 8 232 24 313 36 179
24 409 37 652 35 l180 -1 6 -340z"/>
<path d="M6296 2408 c-42 -22 -103 -89 -127 -142 -20 -44 -25 -138 -10 -178
12 -32 66 -84 120 -116 57 -33 180 -43 229 -18 44 22 134 115 163 165 26 47
57 59 159 63 l63 3 17 -55 c37 -123 81 -149 262 -158 l122 -5 53 59 c62 68
103 144 103 189 0 97 -71 176 -180 200 -19 4 -239 8 -488 9 -406 1 -456 -1
-486 -16z m215 -127 c32 -33 36 -56 15 -104 -18 -43 -62 -82 -109 -97 -35 -11
-41 -10 -77 14 -49 32 -74 69 -65 95 6 21 78 83 122 106 44 23 81 19 114 -14z
m717 -7 c28 -31 28 -63 1 -117 -45 -89 -83 -100 -148 -42 -81 73 -76 129 14
172 60 28 100 24 133 -13z"/>
<path d="M12331 4594 c-28 -15 -64 -42 -79 -61 -71 -93 -157 -192 -302 -348
-179 -192 -225 -248 -270 -328 l-31 -56 20 -20 c27 -27 73 -27 129 1 65 31
237 201 342 337 49 64 124 159 167 212 63 78 153 227 153 252 0 14 -34 37 -54
37 -12 0 -46 -12 -75 -26z"/>
<path d="M11930 3419 c-106 -11 -218 -34 -263 -53 -26 -10 -36 -22 -41 -46
-10 -54 -7 -79 14 -100 19 -19 33 -20 193 -19 152 0 190 -3 327 -30 85 -16
197 -35 248 -41 51 -6 128 -17 170 -25 111 -21 126 -20 156 16 14 17 26 36 26
42 0 6 9 30 21 54 20 42 20 44 3 89 -9 25 -27 52 -40 60 -62 41 -602 76 -814
53z"/>
<path d="M653 3380 c-51 -21 -20 -100 65 -161 31 -23 134 -119 227 -214 176
-178 197 -195 238 -195 21 0 32 12 61 64 52 92 49 114 -21 173 -32 26 -84 74
-115 105 -84 83 -216 188 -263 209 -48 21 -161 33 -192 19z"/>
<path d="M11703 2801 c-21 -13 -33 -29 -33 -42 0 -28 79 -121 128 -150 20 -12
67 -44 103 -71 83 -60 154 -93 245 -111 146 -30 157 -3 59 144 -64 96 -123
153 -200 192 -42 21 -137 45 -210 52 -50 5 -65 3 -92 -14z"/>
<path d="M895 2449 c-66 -10 -203 -32 -305 -48 -102 -16 -234 -37 -295 -45
-170 -23 -309 -86 -292 -131 9 -22 58 -41 147 -56 140 -23 524 27 865 112 136
34 192 57 219 87 26 30 15 49 -46 77 -64 30 -122 31 -293 4z"/>
<path d="M1174 1981 c-71 -50 -148 -108 -171 -131 -40 -38 -43 -44 -43 -95 0
-30 5 -57 11 -61 20 -12 98 -5 130 11 17 9 65 50 107 90 58 56 88 95 121 158
26 50 42 91 38 101 -14 36 -61 18 -193 -73z"/>
</g>
</svg>
